{
  "accessors": [
    {
      "bufferView": 2,
      "componentType": 5126,
      "count": 449,
      "max": [
        0.16345392167568207,
        0.05047450587153435,
        7.216888479888439e-05
      ],
      "min": [
        -0.14725226163864136,
        -0.053846996277570724,
        -0.007740574888885021
      ],
      "type": "VEC3"
    },
    {
      "bufferView": 2,
      "byteOffset": 5388,
      "componentType": 5126,
      "count": 449,
      "max": [
        0.9040769934654236,
        0.8295366764068604,
        1.0
      ],
      "min": [
        -0.800562858581543,
        -0.8295369148254395,
        -1.0
      ],
      "type": "VEC3"
    },
    {
      "bufferView": 1,
      "componentType": 5126,
      "count": 449,
      "max": [
        0.875,
        1.0
      ],
      "min": [
        0.125,
        0.0
      ],
      "type": "VEC2"
    },
    {
      "bufferView": 1,
      "byteOffset": 3592,
      "componentType": 5126,
      "count": 449,
      "max": [
        8.37368106842041,
        3.151282787322998
      ],
      "min": [
        -7.311254501342773,
        -2.1150293350219727
      ],
      "type": "VEC2"
    },
    {
      "bufferView": 0,
      "componentType": 5125,
      "count": 1866,
      "type": "SCALAR"
    },
    {
      "bufferView": 2,
      "byteOffset": 10776,
      "componentType": 5126,
      "count": 7898,
      "max": [
        0.15356406569480896,
        0.03993045166134834,
        0.0032249607611447573
      ],
      "min": [
        -0.1381794959306717,
        -0.04106152430176735,
        -0.008584674447774887
      ],
      "type": "VEC3"
    },
    {
      "bufferView": 2,
      "byteOffset": 105552,
      "componentType": 5126,
      "count": 7898,
      "max": [
        1.0,
        1.0,
        0.9929294586181641
      ],
      "min": [
        -1.0,
        -1.0,
        -1.0
      ],
      "type": "VEC3"
    },
    {
      "bufferView": 1,
      "byteOffset": 7184,
      "componentType": 5126,
      "count": 7898,
      "max": [
        0.8750000596046448,
        1.0
      ],
      "min": [
        0.125,
        0.0
      ],
      "type": "VEC2"
    },
    {
      "bufferView": 1,
      "byteOffset": 70368,
      "componentType": 5126,
      "count": 7898,
      "max": [
        2.923839569091797,
        2.9103829860687256
      ],
      "min": [
        -1.9238395690917969,
        -1.9149854183197021
      ],
      "type": "VEC2"
    },
    {
      "bufferView": 0,
      "byteOffset": 7464,
      "componentType": 5125,
      "count": 16224,
      "type": "SCALAR"
    },
    {
      "bufferView": 2,
      "byteOffset": 200328,
      "componentType": 5126,
      "count": 2081,
      "max": [
        0.15430667996406555,
        0.0399717353284359,
        0.0010573507752269506
      ],
      "min": [
        -0.1374368518590927,
        -0.04102024435997009,
        -0.0010802062461152673
      ],
      "type": "VEC3"
    },
    {
      "bufferView": 2,
      "byteOffset": 225300,
      "componentType": 5126,
      "count": 2081,
      "max": [
        0.9591261148452759,
        0.9513036012649536,
        1.0
      ],
      "min": [
        -0.9509794116020203,
        -0.9645833373069763,
        -0.4066302180290222
      ],
      "type": "VEC3"
    },
    {
      "bufferView": 1,
      "byteOffset": 133552,
      "componentType": 5126,
      "count": 2081,
      "max": [
        0.4816407263278961,
        1.0
      ],
      "min": [
        0.125,
        0.0
      ],
      "type": "VEC2"
    },
    {
      "bufferView": 0,
      "byteOffset": 72360,
      "componentType": 5125,
      "count": 3123,
      "type": "SCALAR"
    },
    {
      "bufferView": 2,
      "byteOffset": 250272,
      "componentType": 5126,
      "count": 108,
      "max": [
        0.0031898324377834797,
        0.024645067751407623,
        0.00025176285998895764
      ],
      "min": [
        -0.0031898324377834797,
        -0.024641308933496475,
        -0.00041211105417460203
      ],
      "type": "VEC3"
    },
    {
      "bufferView": 2,
      "byteOffset": 251568,
      "componentType": 5126,
      "count": 108,
      "max": [
        1.0,
        1.0,
        1.0
      ],
      "min": [
        -1.0,
        -1.0,
        -1.0
      ],
      "type": "VEC3"
    },
    {
      "bufferView": 1,
      "byteOffset": 150200,
      "componentType": 5126,
      "count": 108,
      "max": [
        1.0,
        1.0
      ],
      "min": [
        0.0,
        0.0
      ],
      "type": "VEC2"
    },
    {
      "bufferView": 0,
      "byteOffset": 84852,
      "componentType": 5125,
      "count": 204,
      "type": "SCALAR"
    },
    {
      "bufferView": 2,
      "byteOffset": 252864,
      "componentType": 5126,
      "count": 65532,
      "max": [
        0.1252460777759552,
        0.14321503043174744,
        0.0002139244315912947
      ],
      "min": [
        -0.08767296373844147,
        -0.12099191546440125,
        -0.00021271687000989914
      ],
      "type": "VEC3"
    },
    {
      "bufferView": 2,
      "byteOffset": 1039248,
      "componentType": 5126,
      "count": 65532,
      "max": [
        1.0,
        1.0,
        1.0
      ],
      "min": [
        -1.0,
        -1.0,
        -1.0
      ],
      "type": "VEC3"
    },
    {
      "bufferView": 1,
      "byteOffset": 151064,
      "componentType": 5126,
      "count": 65532,
      "max": [
        0.9999998807907104,
        1.0
      ],
      "min": [
        0.0,
        0.0
      ],
      "type": "VEC2"
    },
    {
      "bufferView": 0,
      "byteOffset": 85668,
      "componentType": 5125,
      "count": 181176,
      "type": "SCALAR"
    },
    {
      "bufferView": 2,
      "byteOffset": 1825632,
      "componentType": 5126,
      "count": 9224,
      "max": [
        0.1045512929558754,
        0.12134652584791183,
        0.0002139244315912947
      ],
      "min": [
        -0.08767296373844147,
        -0.12099191546440125,
        -0.00021249859128147364
      ],
      "type": "VEC3"
    },
    {
      "bufferView": 2,
      "byteOffset": 1936320,
      "componentType": 5126,
      "count": 9224,
      "max": [
        0.9999986290931702,
        0.9999997019767761,
        6.045633563189767e-05
      ],
      "min": [
        -1.0,
        -0.9999996423721313,
        -6.835556268924847e-05
      ],
      "type": "VEC3"
    },
    {
      "bufferView": 1,
      "byteOffset": 675320,
      "componentType": 5126,
      "count": 9224,
      "max": [
        0.999457597732544,
        1.0000001192092896
      ],
      "min": [
        8.195829650503583e-06,
        1.878211037364963e-06
      ],
      "type": "VEC2"
    },
    {
      "bufferView": 0,
      "byteOffset": 810372,
      "componentType": 5125,
      "count": 23718,
      "type": "SCALAR"
    }
  ],
  "asset": {
    "extras": {
      "author": "Mathew_Lee_Griffiths1 (https://sketchfab.com/Mathew_Lee_Griffiths1)",
      "license": "CC-BY-NC-4.0 (http://creativecommons.org/licenses/by-nc/4.0/)",
      "source": "https://sketchfab.com/3d-models/pc-keyboard-e1f5e43da2f047369b303eec3e245c02",
      "title": "PC keyboard"
    },
    "generator": "Sketchfab-15.18.0",
    "version": "2.0"
  },
  "bufferViews": [
    {
      "buffer": 0,
      "byteLength": 905244,
      "name": "floatBufferViews",
      "target": 34963
    },
    {
      "buffer": 0,
      "byteLength": 749112,
      "byteOffset": 905244,
      "byteStride": 8,
      "name": "floatBufferViews",
      "target": 34962
    },
    {
      "buffer": 0,
      "byteLength": 2047008,
      "byteOffset": 1654356,
      "byteStride": 12,
      "name": "floatBufferViews",
      "target": 34962
    }
  ],
  "buffers": [
    {
      "byteLength": 3701364,
      "uri": "scene.bin"
    }
  ],
  "extensionsUsed": [
    "KHR_materials_emissive_strength"
  ],
  "materials": [
    {
      "doubleSided": true,
      "emissiveFactor": [
        1.0,
        0.0,
        0.0
      ],
      "extensions": {
        "KHR_materials_emissive_strength": {
          "emissiveStrength": 10.0
        }
      },
      "name": "under_key_light__0",
      "pbrMetallicRoughness": {
        "baseColorFactor": [
          0.4860967195328595,
          0.4860967195328595,
          0.4860967195328595,
          1.0
        ],
        "metallicFactor": 0.0,
        "roughnessFactor": 0.0
      }
    },
    {
      "doubleSided": true,
      "name": "Plastic_01",
      "pbrMetallicRoughness": {
        "baseColorFactor": [
          0.012518225358363446,
          0.012518225358363446,
          0.012518225358363446,
          1.0
        ],
        "metallicFactor": 0.0,
        "roughnessFactor": 0.5321890504809158
      }
    },
    {
      "doubleSided": true,
      "name": "Plastic_Base_01",
      "pbrMetallicRoughness": {
        "baseColorFactor": [
          0.012286488356915872,
          0.012286488356915872,
          0.012286488356915872,
          1.0
        ],
        "metallicFactor": 0.0,
        "roughnessFactor": 0.8211145618000169
      }
    }
  ],
  "meshes": [
    {
      "name": "keyboard.001_Plastic 01_0",
      "primitives": [
        {
          "attributes": {
            "NORMAL": 1,
            "POSITION": 0,
            "TEXCOORD_0": 2,
            "TEXCOORD_1": 3
          },
          "indices": 4,
          "material": 1,
          "mode": 4
        }
      ]
    },
    {
      "name": "keys.002_Plastic Base 01_0",
      "primitives": [
        {
          "attributes": {
            "NORMAL": 6,
            "POSITION": 5,
            "TEXCOORD_0": 7,
            "TEXCOORD_1": 8
          },
          "indices": 9,
          "material": 2,
          "mode": 4
        }
      ]
    },
    {
      "name": "under_key_light__0",
      "primitives": [
        {
          "attributes": {
            "NORMAL": 11,
            "POSITION": 10,
            "TEXCOORD_0": 12
          },
          "indices": 13,
          "material": 0,
          "mode": 4
        }
      ]
    },
    {
      "name": "Plane__0",
      "primitives": [
        {
          "attributes": {
            "NORMAL": 15,
            "POSITION": 14,
            "TEXCOORD_0": 16
          },
          "indices": 17,
          "material": 0,
          "mode": 4
        }
      ]
    },
    {
      "name": "text.001__0",
      "primitives": [
        {
          "attributes": {
            "NORMAL": 19,
            "POSITION": 18,
            "TEXCOORD_0": 20
          },
          "indices": 21,
          "material": 0,
          "mode": 4
        }
      ]
    },
    {
      "name": "text.001__0",
      "primitives": [
        {
          "attributes": {
            "NORMAL": 23,
            "POSITION": 22,
            "TEXCOORD_0": 24
          },
          "indices": 25,
          "material": 0,
          "mode": 4
        }
      ]
    }
  ],
  "nodes": [
    {
      "children": [
        1
      ],
      "matrix": [
        1.569529414176941,
        0.0,
        0.0,
        0.0,
        0.0,
        3.485055386891347e-16,
        -1.569529414176941,
        0.0,
        0.0,
        1.569529414176941,
        3.485055386891347e-16,
        0.0,
        0.0,
        0.0,
        0.0,
        1.0
      ],
      "name": "Sketchfab_model"
    },
    {
      "children": [
        2
      ],
      "matrix": [
        0.009999999776482582,
        0.0,
        0.0,
        0.0,
        0.0,
        0.0,
        0.009999999776482582,
        0.0,
        0.0,
        -0.009999999776482582,
        0.0,
        0.0,
        0.0,
        0.0,
        0.0,
        1.0
      ],
      "name": "ecb0275845ab46078088ac0d87d533f4.fbx"
    },
    {
      "children": [
        3,
        5,
        7,
        9,
        11
      ],
      "name": "RootNode"
    },
    {
      "children": [
        4
      ],
      "matrix": [
        100.0,
        0.0,
        0.0,
        0.0,
        -0.0,
        -1.629206793918314e-05,
        -99.99999999999868,
        0.0,
        0.0,
        99.99999999999868,
        -1.629206793918314e-05,
        0.0,
        -8.694653511047363,
        7.0916571617126465,
        2.758535861968994,
        1.0
      ],
      "name": "keyboard.001"
    },
    {
      "mesh": 0,
      "name": "keyboard.001_Plastic 01_0"
    },
    {
      "children": [
        6
      ],
      "matrix": [
        100.0,
        0.0,
        0.0,
        0.0,
        -0.0,
        -1.629206793918314e-05,
        -99.99999999999868,
        0.0,
        0.0,
        99.99999999999868,
        -1.629206793918314e-05,
        0.0,
        -8.5506010055542,
        7.44326114654541,
        2.754262924194336,
        1.0
      ],
      "name": "keys.002"
    },
    {
      "mesh": 1,
      "name": "keys.002_Plastic Base 01_0"
    },
    {
      "children": [
        8
      ],
      "matrix": [
        100.0,
        0.0,
        0.0,
        0.0,
        -0.0,
        -1.629206793918314e-05,
        -99.99999999999868,
        0.0,
        0.0,
        99.99999999999868,
        -1.629206793918314e-05,
        0.0,
        -8.62486457824707,
        6.993138790130615,
        2.7583911418914795,
        1.0
      ],
      "name": "under_key_light"
    },
    {
      "mesh": 2,
      "name": "under_key_light__0"
    },
    {
      "children": [
        10
      ],
      "matrix": [
        4.371139006309477e-06,
        1.1102230246251565e-14,
        99.99999999999991,
        0.0,
        99.99999999999982,
        -4.371139006309477e-06,
        -4.371139011860592e-06,
        0.0,
        4.371139011860592e-06,
        99.99999999999991,
        -1.9984014443252818e-13,
        0.0,
        4.238514423370361,
        7.113785266876221,
        -0.5556002259254456,
        1.0
      ],
      "name": "Plane"
    },
    {
      "mesh": 3,
      "name": "Plane__0"
    },
    {
      "children": [
        12,
        13
      ],
      "matrix": [
        -61.49375022342658,
        -0.0001387810059316763,
        78.857584818707,
        0.0,
        -78.85758481295674,
        -0.0011121718447748563,
        -61.49375022089977,
        0.0,
        0.0009623735009511858,
        -99.99999999371909,
        0.0005744768267978984,
        0.0,
        -6.298915863037109,
        7.770784854888916,
        2.1763830184936523,
        1.0
      ],
      "name": "text.001"
    },
    {
      "mesh": 4,
      "name": "text.001__0"
    },
    {
      "mesh": 5,
      "name": "text.001__0"
    }
  ],
  "scene": 0,
  "scenes": [
    {
      "name": "Sketchfab_Scene",
      "nodes": [
        0
      ]
    }
  ]
}
